<svg id="Layer_1" data-name="Layer 1" xmlns="http://www.w3.org/2000/svg" viewBox="0 0 644.22 66.75"><path d="M29.53,41a20.22,20.22,0,0,1-16.07,7.9H7.59V6.61c0-2.45.49-3.22,1.34-3.73l.16-.09V1.73H0V2.79l.17.1c.9.51,1.39,1.25,1.39,3.72V45.19c0,2.45-.53,3.25-1.39,3.73L0,49v1H29l1.59-8.71-.85-.56Z"/><path d="M65.15,45.19V28.32c0-8.62-6.18-11.69-12-11.69-4.93,0-7.49,2.36-8.76,4.33a9.55,9.55,0,0,0-1.12,8.21c-4.49,1.94-9.4,5.82-8.13,13.43,1,5.37,7,7.82,12.23,7.82,5.6,0,9.54-2.79,11.71-8.3V50h7.53V49l-.16-.09C65.66,48.43,65.15,47.63,65.15,45.19ZM45.67,21.52A8.28,8.28,0,0,1,52.58,18c6.07,0,6.54,7.19,6.54,9.4v0a14.35,14.35,0,0,0-3.75-.51,33.27,33.27,0,0,0-10.76,1.75A8,8,0,0,1,45.67,21.52Zm-4.55,21.9c-1-4.2-.5-7.65,1.55-10.25,3.64-4.64,10.64-5,12.7-5a13.58,13.58,0,0,1,3.75.52v10.2c-1,3.59-3.64,9.62-10.1,10C45.87,49,42,47,41.12,43.42Z"/><path d="M122.84,45.16c-.09-.88-.23-2.32-.4-4.11-.31-3.31-.74-7.86-1.23-12.15-.8-7.8-4.56-12.27-10.32-12.27-5.3,0-8.7,3.5-10.12,10.42-.86-6.22-4.86-10.42-10.16-10.42-6.84,0-9.48,5.47-10.63,11v-11H79.1l-6.64,1.55v1l.28.05c1,.15,1.28.46,1.28,2.94v23c0,2.4-.56,3.23-1.4,3.74l-.16.09v1h9.09V49l-.16-.09c-.85-.51-1.41-1.34-1.41-3.74V39.62c0-13,2.59-20.16,7.7-21.12a4.92,4.92,0,0,1,4.25,1c1.88,1.55,3,4.78,3,8.42V45.19c0,2.44-.51,3.24-1.34,3.74l-.16.09v1h9V49l-.15-.09c-.83-.5-1.34-1.3-1.34-3.74V37.24c.11-11.63,2.36-17.76,6.88-18.74a4.63,4.63,0,0,1,3.82.67c2.52,1.83,3.35,6.28,3.61,8.77.14,1.41.37,4.09.62,6.94.37,4.22.78,9,1,10.34.19,2.1-.1,3.17-1,3.71l-.16.09v1h9V49l-.16-.09C123.71,48.4,123.11,47.58,122.84,45.16Z"/><path d="M151.3,16.63c-8.6,0-12.31,8.6-13.9,15.52V16.63h-.87l-6.65,1.55v1l.27,0c1,.16,1.22.47,1.22,2.95V66.75h.88l6.4-1.5.25-.06v-1l-.28,0c-1-.16-1.22-.47-1.22-2.95V49.91a14.25,14.25,0,0,0,3.69.51c2.82,0,12.5-.47,18.42-6.53,3.3-3.39,4.9-7.94,4.77-13.54h0C164,21.88,157.33,16.63,151.3,16.63Zm-13.9,23c0-5.22,3.37-19.63,11-21.12a6.48,6.48,0,0,1,5.39,1.35c2.55,2,4.34,5.73,4.56,9.58.35,6.5-1.08,11.52-4.28,14.93-4,4.27-9.79,5-12.89,5a10.72,10.72,0,0,1-3.75-.52Z"/><path d="M198.53,28h4.91l0-.36c-.93-8-8.46-11.34-15-11-7.48.41-18.49,5.44-18.14,17.62.29,11.92,10,16.17,19,16.17a15.46,15.46,0,0,0,10.87-3.89,12.09,12.09,0,0,0,3.81-7.64C204.43,33.34,201.78,29.65,198.53,28Zm-7.17,20.24h-.81c-6.63,0-11.14-3.29-13.43-9.8A19.45,19.45,0,0,1,176.59,28H194a8.7,8.7,0,0,1,6.51,2.87A9.92,9.92,0,0,1,202.68,39C202,44,197.16,48,191.36,48.27ZM176.9,26.84c1.39-4.8,4.46-8,8.47-8.74a10.12,10.12,0,0,1,7.95,1.63,11.21,11.21,0,0,1,4.47,7.11Z"/><path d="M224.45,30.51c-5.13-1.77-10-3.44-9.56-7.53.31-2.53,2.67-5.08,7.23-5.08,3.75,0,8,4.11,10,9.78l.07.22h.84l1.46-6.72-.17-.12c-2.83-2.2-7.55-4.43-11.08-4.43-6.41,0-10,2.94-10.74,8.72-.93,7.6,6,9.77,12.16,11.68,4.94,1.55,9.21,2.88,8.66,6.62-.4,2.9-4.2,5.16-8.65,5.16-5.68,0-10.71-5.13-13.18-10.22l-.09-.19h-.81l-1.53,7.27.17.13a21.47,21.47,0,0,0,13.46,4.62c7.57,0,13-3.89,13.39-9.69C236.53,34.68,230.11,32.47,224.45,30.51Z"/><path d="M300.43,7.3a5.85,5.85,0,0,0-4.61,1.16c-2.16,1.53-3.67,4.82-5.43,8.65-.57,1.25-1.17,2.56-1.82,3.85l-.67,1.36c-2,4.13-4,8-6.41,9.46a4.87,4.87,0,0,1-3.82.84,1.67,1.67,0,0,1-1-1.08c-.66-1.87,1.56-4.34,6.25-6.95l.24-.13-.35-1-.34.19c-4.26,2.37-10.7,5.94-9,9.88a3.17,3.17,0,0,0,2.14,1.76,7.46,7.46,0,0,0,6-1.5c2.68-2,4.5-5.21,6.13-8.39,3.11,1.73,4.64,6.87,3.5,11.9-1.67,7.36-8,11.76-16.84,11.76s-14.06-5.64-14.57-11.2c-.48-5.26,1-9.64,4.12-12,2.88-2.21,6.85-2.48,11.5-.78l.27.1.13-.26a4,4,0,0,0,.22-.52l.11-.3-.31-.11c-7.9-2.83-12.44-7.85-12.44-13.78,0-4,1.6-7.2,4.16-8.27,4.1-1.71,10.65.59,15.24,8.3l.09.17h.94l1.39-7.55L285,2.7C277.19-.23,271.65-.74,266.45,1c-5.73,1.83-8.54,4.84-8.87,9.47-.51,7,5.48,10,10.74,11.79a14.84,14.84,0,0,0-10.75,3.62,12.59,12.59,0,0,0-3.73,11.68c1,6.32,8.85,12.86,20.19,12.86,8.77,0,15.22-3.9,17.69-10.7,1.78-4.9,1.14-10.58-1.4-13.6a10.18,10.18,0,0,0,7.57-1.54c5-3.16,8.66-10,5.95-14.66A5.24,5.24,0,0,0,300.43,7.3ZM291,18.45c1.47-3.16,3-6.43,4.28-7.28a3.41,3.41,0,0,1,2.57-.67,4.45,4.45,0,0,1,2.76,2.08,6.93,6.93,0,0,1,.83,5.17,9.56,9.56,0,0,1-4.14,6,9.18,9.18,0,0,1-9.11.52c.5-1,1-2,1.42-2.89S290.57,19.44,291,18.45Z"/><path d="M318.07,1.73l-2.31,8.8.87.43.17-.18c3.35-3.8,7.53-7.85,14.65-7.85h1.17V45.19c0,2.4-.56,3.23-1.4,3.74l-.16.09v1h9.09V49l-.16-.09c-.84-.51-1.41-1.34-1.41-3.74V2.93h1.18c7.12,0,11.3,4.05,14.65,7.85l.16.18.88-.43-2.31-8.8Z"/><path d="M374.86,16.63c-1.9,0-7.25,0-9.47,13.19V16.63h-.95l-6.64,1.55v1l.27.05c1,.15,1.29.46,1.29,2.94v23c0,2.45-.53,3.25-1.4,3.73l-.16.1v1h9.09V49l-.16-.09c-.83-.5-1.34-1.3-1.34-3.74V42.54c0-8.51,1.53-23.16,7.27-24a3.12,3.12,0,0,1,2.56.74c1.8,1.5,2.69,4.75,2.78,7.31v.19l.89.5,4.47-6.3-.16-.19C381,18.21,378.89,16.63,374.86,16.63Z"/><path d="M404.46,16.63c-9.23,0-18.77,6.87-18.77,18.36,0,9.09,7.13,15.43,17.34,15.43,9,0,18.76-7,18.76-18.36C421.79,21.93,413.07,16.63,404.46,16.63Zm-5.15,1.87a11.53,11.53,0,0,1,3.25-.48c6.42,0,11.08,5.79,12.88,12,2.12,7.32.75,16.25-7.27,18.57a10.78,10.78,0,0,1-8.39-.82c-3.49-1.9-6.31-5.79-7.73-10.66C389.93,29.75,391.3,20.82,399.31,18.5Z"/><path d="M458.4,45.19V16.63h-.88l-6.65,1.55v1l.27,0c1,.16,1.23.47,1.23,2.95v5.24c0,7.2-1.84,19.76-8.72,21.1a6.29,6.29,0,0,1-5.45-1.22c-1.95-1.62-3.07-4.61-3.07-8.18V16.63h-.88l-6.65,1.55v1l.28,0c1,.16,1.22.47,1.22,2.95V38.12c0,7.59,4.42,12.3,11.55,12.3,7.58,0,10.45-6.52,11.72-12.93V50H460V49l-.17-.1C458.93,48.44,458.4,47.64,458.4,45.19Z"/><path d="M497.08,17.73l.09-.1v-1h-8.68v1l.12.1c2.85,2.4,2.11,6-.37,12.15L483,43.05l-7.78-18.19c-1.63-4-2.06-5.49-.48-7.13l.09-.1v-1H463.73v1l.11.1c3.18,2.65,4.58,5.45,7.47,12.2L479.83,50h6.08l-2.32-5.5,5.74-14.3C491.91,23.81,494.29,20.59,497.08,17.73Z"/><path d="M526.36,45.19V28.32c0-8.62-6.18-11.69-12-11.69-4.93,0-7.49,2.36-8.76,4.33a9.55,9.55,0,0,0-1.12,8.21c-4.49,1.94-9.4,5.82-8.13,13.43,1,5.37,7,7.82,12.23,7.82,5.6,0,9.54-2.79,11.71-8.3V50h7.53V49l-.16-.09C526.87,48.43,526.36,47.63,526.36,45.19ZM506.88,21.52A8.28,8.28,0,0,1,513.79,18c1.54,0,6.54.67,6.54,9.4v0a14.35,14.35,0,0,0-3.75-.51,33.23,33.23,0,0,0-10.76,1.75A8,8,0,0,1,506.88,21.52Zm-4.54,21.9c-1-4.2-.51-7.65,1.54-10.25,3.64-4.64,10.64-5,12.7-5a13.58,13.58,0,0,1,3.75.52v10.2c-1,3.59-3.65,9.62-10.1,10C507.08,49.07,503.21,47,502.34,43.42Z"/><path d="M538,11.77a3.53,3.53,0,1,0-3.53-3.52A3.53,3.53,0,0,0,538,11.77Z"/><path d="M541.19,45.19V16.63h-.87l-6.65,1.55v1l.27,0c1,.16,1.22.47,1.22,2.95v23c0,2.44-.51,3.24-1.33,3.74l-.16.09v1h9.09V49l-.17-.1C541.73,48.44,541.19,47.64,541.19,45.19Z"/><path d="M556.09,45.19V.3h-.87l-6.65,1.48V2.88l.27,0c1,.16,1.22.47,1.22,3V45.19c0,2.44-.51,3.24-1.33,3.74l-.16.09v1h9V49l-.16-.09C556.6,48.43,556.09,47.63,556.09,45.19Z"/><path d="M570.92,45.19V.3h-.87L563.4,1.79V2.88l.27,0c1,.16,1.22.47,1.22,3V45.19c0,2.44-.51,3.24-1.33,3.74l-.16.09v1h9V49l-.16-.09C571.44,48.43,570.92,47.63,570.92,45.19Z"/><path d="M606.61,28h4.91l0-.36c-.93-8-8.48-11.34-15-11C589,17,577.94,22.07,578.3,34.25c.29,11.92,10,16.17,19,16.17a15.46,15.46,0,0,0,10.87-3.89A12.19,12.19,0,0,0,612,38.89C612.5,33.34,609.86,29.65,606.61,28Zm-7.18,20.24h-.81c-6.62,0-11.13-3.29-13.43-9.8A19.35,19.35,0,0,1,584.67,28H602a8.71,8.71,0,0,1,6.51,2.87A9.92,9.92,0,0,1,610.75,39C610.11,44,605.24,48,599.43,48.27ZM585,26.84c1.39-4.8,4.47-8,8.48-8.74a10.09,10.09,0,0,1,7.95,1.64,11.15,11.15,0,0,1,4.46,7.1Z"/><path d="M632.53,30.51c-5.14-1.77-10-3.44-9.56-7.53.31-2.53,2.66-5.08,7.23-5.08,3.74,0,8,4.11,10,9.78l.08.22h.83l1.46-6.72-.16-.12c-2.84-2.2-7.55-4.43-11.09-4.43-6.41,0-10,2.94-10.73,8.72-.93,7.6,6,9.77,12.15,11.68,4.94,1.55,9.21,2.88,8.67,6.62-.4,2.9-4.21,5.16-8.66,5.16-5.67,0-10.7-5.13-13.18-10.22l-.09-.19h-.81l-1.52,7.27.17.13a21.45,21.45,0,0,0,13.46,4.62c7.57,0,13-3.89,13.39-9.69C644.61,34.68,638.19,32.47,632.53,30.51Z"/></svg>