<svg id="Layer_1" data-name="Layer 1" xmlns="http://www.w3.org/2000/svg" viewBox="0 0 172.8 66.39"><path d="M40.47,54.37l-2,11H.44v-.64c1.46-.81,2.1-2.18,2.1-5.38V7.68C2.54,4.4,1.9,3.12.44,2.3V1.57H11.75V2.3c-1.37.82-2,2.1-2,5.38V64.76H18A27.47,27.47,0,0,0,39.93,54Z"/><path d="M38.83,65.84H0V64.51l.22-.13c1.16-.65,1.88-1.71,1.88-5V7.68c0-3.32-.66-4.32-1.88-5L0,2.56V1.13H12.19V2.55L12,2.68c-1.13.67-1.79,1.71-1.79,5V64.33H18A27.16,27.16,0,0,0,39.58,53.74l.25-.32,1.13.75ZM21.77,65H38.1L40,54.65A28.15,28.15,0,0,1,21.77,65ZM1,65H9.3V7.68c0-3.08.55-4.64,2-5.62V2L.88,2.05C2.4,3,3,4.58,3,7.68V59.39C3,62.4,2.4,64,1,65Z"/><path d="M106.42,32a12.94,12.94,0,0,1-11.11,1.62C103,40.06,101.76,66,75.25,66c-15,0-24.9-8.78-26.16-16.57-2.24-14,10.21-22.3,23.65-18.9C65.48,28.15,53.21,24.93,54,13.82c.45-6.36,4.66-9.94,11.38-12.09S79.28.12,89.49,4l-1.7,9.23h-.63C81.25,3.25,72.56-.42,66.56,2.09,62.89,3.61,60.83,8,60.83,13.37c0,7.79,5.91,14.69,16.66,18.54a5.35,5.35,0,0,1-.27.63c-14.42-5.28-22.3,4.39-21.14,17.28C56.8,57.62,64.05,65,75.7,65c26.24,0,27.14-27.5,17.37-32.15-2.24,4.39-4.66,8.69-8.15,11.28-3.85,2.78-8.69,2.87-10-.17-2.06-4.75,6-9.32,11.64-12.46l.18.54c-5.64,3.14-9.49,6.63-8.42,9.68.9,2.59,4.13,2.24,7,.54,3.67-2.16,6.45-8.33,9.49-14.43,3.41-6.8,5.74-13.7,9.41-16.3,4-2.86,8-1.61,9.94,1.79C117.53,19.19,112.78,28,106.42,32Zm4.21-15.67c-2.33-3.4-5.2-3.67-7.62-2-2.32,1.52-4.92,8.15-7.61,13.61-.63,1.35-1.34,2.78-2.06,4.21a12.8,12.8,0,0,0,12.81-.54C111.88,27.88,113.49,20.63,110.63,16.33Z"/><path d="M75.25,66.39c-14.93,0-25.25-8.61-26.59-16.94-1-6.13.76-11.59,4.91-15.39A19.68,19.68,0,0,1,67.68,29.3c-6.92-2.42-14.76-6.36-14.1-15.51C54,7.69,57.73,3.72,65.26,1.31,72.13-1,79.42-.3,89.65,3.55l.34.13-1.83,10H86.91l-.12-.21C80.74,3.26,72.12.25,66.73,2.49,63.31,3.91,61.26,8,61.26,13.37c0,7.79,6,14.4,16.37,18.13l.4.15-.13.4a4.55,4.55,0,0,1-.29.69l-.18.34L77.07,33C71,30.72,65.73,31.07,61.94,34c-4.07,3.12-6,8.89-5.43,15.8C57.19,57.11,64,64.53,75.7,64.53s20-5.79,22.16-15.48c1.49-6.62-.52-13.37-4.6-15.65-2.15,4.18-4.56,8.43-8.08,11-2.55,1.84-5.58,2.6-7.87,2a4.11,4.11,0,0,1-2.82-2.31c-2.25-5.2,6.22-9.9,11.83-13l.46-.26.46,1.39-.31.17c-6.18,3.43-9.1,6.68-8.22,9.15A2.13,2.13,0,0,0,80,42.94c1.21.45,3.1,0,5-1.1,3.21-1.89,5.75-7,8.46-12.5l.86-1.74c.86-1.72,1.65-3.43,2.41-5.09,2.3-5,4.3-9.36,7.13-11.37A7.68,7.68,0,0,1,110,9.61a6.94,6.94,0,0,1,4.49,3.45c3.56,6.19-1.28,15.14-7.85,19.31h0a13.38,13.38,0,0,1-9.94,2c3.33,4,4.17,11.45,1.83,17.9C95.29,61.26,86.8,66.39,75.25,66.39ZM66.74,30.16a18.46,18.46,0,0,0-12.58,4.55c-3.92,3.59-5.57,8.77-4.64,14.6,1.62,10,14.62,16.21,25.73,16.21,8.41,0,13.82-2.57,17.28-5.72-3.46,3.1-8.75,5.6-16.83,5.6-12.23,0-19.35-7.81-20.06-15.53C55,42.64,57.09,36.6,61.41,33.28c2.15-1.65,5.63-3.19,10.77-2.48A23.33,23.33,0,0,0,66.74,30.16Zm14.54,4.91c-3.89,2.55-7.29,5.66-6,8.67a3.28,3.28,0,0,0,2.25,1.82c2,.57,4.82-.16,7.13-1.82a17.29,17.29,0,0,0,3-2.93,9.81,9.81,0,0,1-2.17,1.78c-2.14,1.28-4.29,1.71-5.77,1.18a3.07,3.07,0,0,1-1.85-2C77.16,39.79,78.33,37.5,81.28,35.07ZM93.94,32c4.32,1.88,8.33,1.65,12-.69a12.61,12.61,0,0,0,5.45-7.91,9.06,9.06,0,0,0-1.1-6.8,5.87,5.87,0,0,0-3.62-2.74,4.44,4.44,0,0,0-3.37.89c-1.7,1.11-3.7,5.39-5.62,9.54-.62,1.31-1.23,2.64-1.86,3.91S94.59,30.67,93.94,32Zm-21.3-1.11q1,.16,2.13.45c-.68-.3-1.35-.61-2-.93ZM65.37,2.2c-7.05,2.29-10.51,6-10.91,11.65-.73,10,9.64,13.43,16.78,15.69-7-4-10.85-9.68-10.85-16.17C60.39,8.15,62.23,4.08,65.37,2.2ZM106,12.9a4.65,4.65,0,0,1,.83.07A6.67,6.67,0,0,1,111,16.08h0a9.78,9.78,0,0,1,1.22,7.46,12.93,12.93,0,0,1-1.8,4.42c3.77-4.34,5.76-10.25,3.33-14.46a6.1,6.1,0,0,0-3.91-3,6.85,6.85,0,0,0-5.4,1.39,12.34,12.34,0,0,0-3.13,3.64,6.18,6.18,0,0,1,1.47-1.5A5.58,5.58,0,0,1,106,12.9Zm-18.56-.14h0L89,4.24C82,1.64,76.39.57,71.39,1,76.59,1.37,82.75,5,87.41,12.76Z"/><path d="M172.29,12.69l-.55.28c-4.1-4.66-9.85-10.67-20-10.67h-2V59.38c0,3.2.73,4.57,2.09,5.38v.64h-11.3v-.64c1.36-.81,2.09-2.18,2.09-5.38V2.3h-2c-10.13,0-15.87,6-20,10.67l-.54-.28,2.92-11.12h46.32Z"/><path d="M152.3,65.84H140.12V64.52l.21-.13c1.13-.68,1.88-1.79,1.88-5V2.74h-1.56c-9.56,0-15.15,5.43-19.65,10.52l-.22.25-1.16-.58,3.09-11.8h47l3.09,11.8-1.16.58-.23-.25c-4.49-5.09-10.08-10.52-19.64-10.52H150.2V59.39c0,3.21.76,4.32,1.89,5l.21.13ZM141.05,65h10.32c-1.45-1-2-2.65-2-5.58V2h-6.24V59.39C143.09,62.32,142.49,64,141.05,65ZM154.5,2c8.06.89,13.12,5.67,17.23,10.29L169,2ZM123.39,2l-2.7,10.28C124.8,7.67,129.86,2.9,137.92,2Z"/></svg>